<?xml version="1.0" encoding="utf-8"?>
<!-- Generator: Adobe Illustrator 23.0.5, SVG Export Plug-In . SVG Version: 6.00 Build 0)  -->
<svg version="1.1" id="Livello_1" xmlns="http://www.w3.org/2000/svg" xmlns:xlink="http://www.w3.org/1999/xlink" x="0px" y="0px"
	 viewBox="0 0 612 792" style="enable-background:new 0 0 612 792;" xml:space="preserve">
<style type="text/css">
	.st0{fill:#FFFFFF;}
	.st1{display:none;fill:#FFFFFF;}
</style>
<g>
	<path d="M-43,828c0-287.7,0-575.3,0-863c233.3,0,466.7,0,700,0c0,287.7,0,575.3,0,863C423.7,828,190.3,828-43,828z M361.8,77
		c0,132,0,263,0,395.4c-1.6-2.6-2.4-3.8-3.1-5.1c-15.5-25.8-31-51.5-46.4-77.4c-25.2-42.3-50.3-84.6-75.3-127
		c-35.5-60.1-71-120.1-106.3-180.3c-2.5-4.2-5.4-6-9.9-6.9C85.5,69,50.2,67.9,14.8,72.8c-8.5,1.2-17,2.8-25.3,4.1
		c0,232.8,0,464.9,0,697c50.6,10.7,100.9,11.1,151.7-0.2c0-130.3,0-260.3,0-391.7c1.6,2.4,2.5,3.5,3.2,4.8
		c9.9,16.3,19.9,32.7,29.7,49.1c24,40.1,47.9,80.3,71.9,120.4c23,38.5,46,77,69.1,115.4c19.6,32.6,39.3,65.2,58.9,97.9
		c1.9,3.2,4.1,4.7,7.7,5.4c21.4,4.2,43,7.4,64.9,7.3c20.4,0,40.5-2.3,60.4-6.5c3.9-0.8,6.1-2.3,5.7-6.9c-0.4-4.8,0-9.7,0-14.5
		c0.1-101.5,0.2-203,0.3-304.5c0-54.7,0.1-109.3,0.2-164c0.1-68,0.3-136,0.6-204c0-3.7-1.2-5.4-4.8-5.9c-12-1.6-24-3.7-36.1-4.8
		c-24.6-2.4-49.3-1.7-73.8,1C386.9,73.5,374.7,75.3,361.8,77z M519.9,769.4c3-2,4.9-3.2,6.8-4.5c28.9-21,57.6-42.1,86.7-62.8
		c4.7-3.3,6.4-6.6,6.3-12.2c-0.3-35-0.2-70-0.2-105c-0.1-110.7-0.2-221.3-0.3-332c-0.1-81.2-0.1-162.3-0.2-243.5
		c0-1.4-0.2-2.7-0.4-4.7c-1.4,0.9-2.1,1.3-2.7,1.7c-30.2,22.7-60.3,45.5-90.6,68c-3.3,2.5-4.4,4.9-4.4,9c0,44.3-0.3,88.7-0.4,133
		c-0.1,78.8-0.2,157.6-0.3,236.5c-0.1,100.3-0.2,200.6-0.3,301C519.9,758.7,519.9,763.4,519.9,769.4z M135.1,76.5
		C207.9,199.5,280.6,322.3,353.2,445c0.6-0.2,1.1-0.3,1.7-0.5c0-2.6,0-5.1,0-7.7c0-75.7,0-151.3,0-227c0-2.5-0.8-5.3-2.1-7.4
		c-14.8-25.4-29.8-50.7-44.7-76.1c-23.3-39.7-46.6-79.4-69.8-119.1c-2.2-3.7-3.6-4.1-7-1.4c-10.4,8-21.1,15.6-31.7,23.4
		C178.4,44.7,157.2,60.2,135.1,76.5z M148.6,771.6c3.5-1.5,5.9-2.3,8-3.4c11.2-5.9,22.6-11.4,33.4-17.8c20.1-11.9,38.5-26,53.6-44.1
		c3-3.7,4.2-7.5,4.2-12.3c-0.3-38.5-0.3-77-0.7-115.5c0-3.9-1.3-8.2-3.3-11.6c-28.7-48.3-57.7-96.4-86.6-144.6
		c-2.7-4.5-5.5-9-8.7-14.2C148.6,529.7,148.6,650.1,148.6,771.6z M373.1,66.8c0.8,0.6,1.1,1,1.3,1c2.3-0.2,4.6-0.3,6.9-0.6
		c43.7-6.5,87.3-6.2,130.7,2.2c4.9,1,8.5,0.1,12.3-2.8c25.3-19.2,50.7-38.2,76-57.2c4.4-3.3,8.8-6.7,13.9-10.6
		c-1.9-0.7-2.9-1.2-4-1.4c-16.3-2.1-32.6-5.2-49-6.1c-29.2-1.6-58.2,1.5-87,6c-5.5,0.9-10.4,2.7-14.9,6.2
		c-10.4,8-21.1,15.6-31.7,23.3C409.5,40,391.5,53.3,373.1,66.8z M228-0.8c-3.3-0.9-5.3-1.6-7.3-2c-40.5-7.9-81-8.4-121.5,0
		C94.9-1.9,90.6,0,87.1,2.5c-22.8,16.4-45.3,33.1-68,49.8c-6.5,4.8-13,9.6-19.5,14.3c1.4,0.8,2.5,0.9,3.5,0.7
		c40.8-7.2,81.5-6.1,122,2c4.2,0.8,7.2,0.3,10.5-2.2C158.8,50,182,33,205.1,16C212.4,10.6,219.7,5.3,228-0.8z M-18.7,778.7
		c0.2,0,0.4,0,0.5,0c0-234.3,0-468.7,0-703c-0.2,0-0.4,0-0.5,0C-18.7,310-18.7,544.3-18.7,778.7z M626.7,284.2c0.3,0,0.7,0,1,0
		c0.1-1.4,0.2-2.9,0.2-4.3c0-94.6-0.1-189.2,0-283.8c0-4.4-1.4-5.8-6.1-4.3c6.9-0.3,5.1,4.5,5.1,7.8c0,93.3-0.1,186.5-0.2,279.8
		C626.7,281,626.7,282.6,626.7,284.2z M354.5,187.4c0.2,0,0.4,0.1,0.6,0.1c0-39.4,0-78.7,0-118.1c-0.2,0-0.4,0-0.6,0
		C354.5,108.8,354.5,148.1,354.5,187.4z M627.7,590.3c-0.2,0-0.4-0.1-0.6-0.1c0,36.6,0,73.2,0,109.8c0.2,0,0.4,0,0.6,0
		C627.7,663.5,627.7,626.9,627.7,590.3z M256,613.9c-0.4,0-0.8,0-1.2,0c-0.3,30.8,0.4,61.7-0.1,92.1c0.3-1.2,1.2-3,1.2-4.8
		c0.1-27.3,0.1-54.6,0.1-81.9C256,617.5,256,615.7,256,613.9z M626.6,367.3c0,0-0.1,0-0.1,0c0,17.1,0,34.2,0,51.3c0,0,0.1,0,0.1,0
		C626.6,401.5,626.6,384.4,626.6,367.3z M571.7-16c0.1-0.2,0.1-0.4,0.2-0.6c-15.6,0-31.2,0-46.8,0c0,0.2,0,0.4,0,0.6
		C540.6-16,556.2-16,571.7-16z M142-16.7c0,0.2,0.1,0.4,0.1,0.6c12.7,0,25.3,0,38,0c0-0.2,0-0.4,0-0.6
		C167.4-16.7,154.7-16.7,142-16.7z M46.1,789.2c0,0.2,0,0.3,0,0.5c12.5,0,25,0,37.5,0c0-0.2,0-0.3,0-0.5
		C71.2,789.2,58.6,789.2,46.1,789.2z M430.6,789.2c-0.1,0.2-0.1,0.3-0.2,0.5c11.4,0,22.9,0,34.3,0c0-0.2,0-0.3,0-0.5
		C453.4,789.2,442,789.2,430.6,789.2z"/>
	<path class="st0" d="M446.2,792.2c-19.5,0-40-2.3-66.4-7.5c-6.4-1.2-11-4.5-14.4-10.1c-11.6-19.4-23.5-39.2-35-58.3
		c-8-13.2-15.9-26.4-23.8-39.6c-23.4-38.9-47-78.4-69.1-115.5c-10.7-17.9-21.4-35.9-32.1-53.8c-13.2-22.2-26.5-44.4-39.8-66.6
		c-4.7-7.9-9.5-15.9-14.3-23.8v364.5l-7.8,1.7c-25.6,5.7-51.8,8.6-77.8,8.6c-25.6,0-51.9-2.8-78.2-8.4l-7.9-1.7V68.4l8.4-1.4
		c2.6-0.4,5.2-0.9,7.8-1.3c5.8-1,11.7-2,17.7-2.8c15-2.1,30.2-3.1,45.2-3.1c21.1,0,42.7,2.1,64,6.1c7.6,1.4,12.9,5.2,16.7,11.7
		c34.1,58,68.3,116,106.3,180.3c27.2,46,51.9,87.6,75.3,127c10.2,17.2,20.7,34.7,30.9,51.6V68.2l8.7-1.1c4.1-0.5,8-1.1,12-1.6
		c8.8-1.2,17-2.3,25.5-3.2c15.2-1.7,30-2.6,44.1-2.6c10.8,0,21.5,0.5,31.8,1.5c7.9,0.8,15.8,1.9,23.4,3c4.3,0.6,8.7,1.3,13,1.8
		c8.5,1.1,13.6,7,13.5,15.9c-0.2,60.5-0.4,125.3-0.6,204c-0.1,40.9-0.1,82.4-0.1,122.6c0,0-0.2,287.1-0.3,345.8
		c0,1.8-0.1,3.5-0.1,5.2c-0.1,3-0.2,5.8,0,8.4c0.4,4.3-0.1,14.8-13.6,17.6c-21.1,4.4-42.1,6.7-62.5,6.7H446.2z"/>
	<path class="st0" d="M382.6,69.6c12.9-1.7,25.1-3.5,37.3-4.8c24.6-2.7,49.2-3.4,73.8-1c12.1,1.2,24.1,3.3,36.1,4.8
		c3.7,0.5,4.8,2.2,4.8,5.9c-0.3,68-0.4,136-0.6,204c-0.1,54.7-0.1,109.3-0.2,164c-0.1,101.5-0.2,203-0.3,304.5c0,4.8-0.5,9.7,0,14.5
		c0.4,4.6-1.8,6.1-5.7,6.9c-19.9,4.2-40,6.5-60.4,6.5c-21.9,0-43.5-3.1-64.9-7.3c-3.5-0.7-5.8-2.2-7.7-5.4
		c-19.5-32.7-39.3-65.3-58.9-97.9c-23.1-38.5-46.1-76.9-69.1-115.4c-24-40.1-47.9-80.3-71.9-120.4c-9.8-16.4-19.8-32.7-29.7-49.1
		c-0.7-1.2-1.6-2.4-3.2-4.8c0,131.3,0,261.4,0,391.7c-50.8,11.4-101,10.9-151.7,0.2c0-232.1,0-464.1,0-697c8.3-1.4,16.8-3,25.3-4.1
		c35.5-4.9,70.8-3.8,105.9,2.9c4.5,0.9,7.5,2.7,9.9,6.9c35.3,60.2,70.8,120.2,106.3,180.3c25.1,42.4,50.2,84.7,75.3,127
		c15.4,25.8,30.9,51.6,46.4,77.4c0.8,1.3,1.5,2.5,3.1,5.1C382.6,332.6,382.6,201.7,382.6,69.6z"/>
	<path class="st1" d="M519.9,769.4c0-6,0-10.7,0-15.5c0.1-100.3,0.2-200.6,0.3-301c0.1-78.8,0.1-157.6,0.3-236.5
		c0.1-44.3,0.4-88.7,0.4-133c0-4.1,1.1-6.5,4.4-9c30.3-22.5,60.4-45.3,90.6-68c0.6-0.5,1.3-0.9,2.7-1.7c0.2,2,0.4,3.3,0.4,4.7
		c0.1,81.2,0.1,162.3,0.2,243.5c0.1,110.7,0.2,221.3,0.3,332c0,35,0,70,0.2,105c0,5.6-1.7,8.8-6.3,12.2
		c-29.1,20.7-57.8,41.8-86.7,62.8C524.8,766.2,522.9,767.4,519.9,769.4z"/>
	<path class="st0" d="M135.1,76.5c22.1-16.3,43.3-31.8,64.4-47.4c10.6-7.8,21.3-15.4,31.7-23.4c3.5-2.7,4.9-2.3,7,1.4
		c23.2,39.8,46.5,79.5,69.8,119.1c14.9,25.4,29.9,50.7,44.7,76.1c1.3,2.2,2.1,4.9,2.1,7.4c0.1,75.7,0.1,151.3,0,227
		c0,2.6,0,5.1,0,7.7c-0.6,0.2-1.1,0.3-1.7,0.5C280.6,322.3,207.9,199.5,135.1,76.5z"/>
	<path class="st0" d="M148.6,771.6c0-121.5,0-241.9,0-363.4c3.2,5.2,6,9.7,8.7,14.2c28.9,48.2,57.9,96.3,86.6,144.6
		c2,3.4,3.3,7.7,3.3,11.6c0.4,38.5,0.4,77,0.7,115.5c0,4.8-1.2,8.6-4.2,12.3c-15.1,18.1-33.5,32.2-53.6,44.1
		c-10.9,6.4-22.2,12-33.4,17.8C154.4,769.3,152.1,770.1,148.6,771.6z"/>
	<path class="st0" d="M373.1,66.8c18.4-13.5,36.4-26.8,54.5-40.1c10.6-7.8,21.3-15.3,31.7-23.3c4.5-3.5,9.4-5.3,14.9-6.2
		c28.8-4.5,57.8-7.7,87-6c16.4,0.9,32.7,3.9,49,6.1c1.1,0.1,2.1,0.7,4,1.4c-5,3.9-9.4,7.3-13.9,10.6c-25.4,19.1-50.8,38.1-76,57.2
		c-3.9,2.9-7.4,3.8-12.3,2.8c-43.4-8.4-87-8.7-130.7-2.2c-2.3,0.3-4.6,0.5-6.9,0.6C374.1,67.7,373.9,67.4,373.1,66.8z"/>
	<path class="st0" d="M221.8-0.8c-8,6.1-15.1,11.4-22.2,16.8c-22.5,17-45.1,34-67.5,51.2c-3.3,2.5-6.2,3.1-10.3,2.2
		c-39.4-8.2-79-9.3-118.8-2c-1,0.2-2.1,0.1-3.4-0.7c6.3-4.8,12.6-9.6,18.9-14.3c22-16.6,44-33.3,66.1-49.8c3.4-2.5,7.6-4.5,11.7-5.3
		c39.4-8.3,78.8-7.9,118.2,0C216.7-2.4,218.6-1.7,221.8-0.8z"/>
	<ellipse class="st0" cx="-18.4" cy="427.2" rx="0.4" ry="497.1"/>
	<path class="st1" d="M626.7,284.2c0-1.6,0-3.2,0-4.8c0.1-93.3,0.2-186.5,0.2-279.8c0-3.3,1.8-8.1-5.1-7.8c4.6-1.5,6.1-0.2,6.1,4.3
		c-0.1,94.6,0,189.2,0,283.8c0,1.4-0.1,2.9-0.2,4.3C627.4,284.2,627,284.2,626.7,284.2z"/>
	<path class="st1" d="M354.5,187.4c0-39.3,0-78.7,0-118c0.2,0,0.4,0,0.6,0c0,39.4,0,78.7,0,118.1
		C354.9,187.5,354.7,187.5,354.5,187.4z"/>
	<path class="st1" d="M627.7,590.3c0,36.6,0,73.1,0,109.7c-0.2,0-0.4,0-0.6,0c0-36.6,0-73.2,0-109.8
		C627.3,590.3,627.5,590.3,627.7,590.3z"/>
	<path class="st1" d="M256,613.9c0,1.8,0,3.6,0,5.3c0,27.3,0,54.6-0.1,81.9c0,1.8-0.9,3.7-1.2,4.8c0.5-30.4-0.2-61.2,0.1-92.1
		C255.1,613.9,255.5,613.9,256,613.9z"/>
	<ellipse class="st1" cx="626.5" cy="393" rx="0.1" ry="36.2"/>
	<path class="st1" d="M571.7-16c-15.5,0-31.1,0-46.6,0c0-0.2,0-0.4,0-0.6c15.6,0,31.2,0,46.8,0C571.8-16.4,571.8-16.2,571.7-16z"/>
	<path class="st1" d="M142-16.7c12.7,0,25.4,0,38.1,0c0,0.2,0,0.4,0,0.6c-12.7,0-25.3,0-38,0C142.1-16.3,142-16.5,142-16.7z"/>
	<ellipse class="st1" cx="64.9" cy="789.4" rx="26.5" ry="0.3"/>
	<path class="st1" d="M430.6,789.2c11.4,0,22.8,0,34.2,0c0,0.2,0,0.3,0,0.5c-11.4,0-22.9,0-34.3,0
		C430.5,789.5,430.6,789.3,430.6,789.2z"/>
</g>
<polyline class="st0" points="-18.1,778.7 -14,75.7 120.7,75.7 350,452.9 361.8,82.3 519.9,75.7 519.9,769.4 387.7,776 148.6,418.6 
	145.2,765.7 "/>
</svg>
